{
	"asset":{
		"generator":"Khronos glTF Blender I/O v4.3.47",
		"version":"2.0"
	},
	"scene":0,
	"scenes":[
		{
			"name":"Scene",
			"nodes":[
				0,
				1
			]
		}
	],
	"nodes":[
		{
			"mesh":0,
			"name":"Apple"
		},
		{
			"mesh":1,
			"name":"Stem.001"
		}
	],
	"materials":[
		{
			"doubleSided":true,
			"name":"AppleSkin",
			"pbrMetallicRoughness":{
				"baseColorTexture":{
					"index":0
				},
				"metallicFactor":0,
				"roughnessFactor":0.5
			}
		},
		{
			"doubleSided":true,
			"name":"Wood",
			"pbrMetallicRoughness":{
				"baseColorTexture":{
					"index":1
				},
				"metallicFactor":0,
				"roughnessFactor":0.5
			}
		}
	],
	"meshes":[
		{
			"name":"Sphere.005",
			"primitives":[
				{
					"attributes":{
						"POSITION":0,
						"NORMAL":1,
						"TEXCOORD_0":2
					},
					"indices":3,
					"material":0
				}
			]
		},
		{
			"name":"Cylinder.001",
			"primitives":[
				{
					"attributes":{
						"POSITION":4,
						"NORMAL":5,
						"TEXCOORD_0":6
					},
					"indices":7,
					"material":1
				}
			]
		}
	],
	"textures":[
		{
			"sampler":0,
			"source":0
		},
		{
			"sampler":0,
			"source":1
		}
	],
	"images":[
		{
			"mimeType":"image/jpeg",
			"name":"apple_exterior",
			"uri":"../textures/apple_exterior.jpg"
		},
		{
			"mimeType":"image/png",
			"name":"wood",
			"uri":"../textures/wood.png"
		}
	],
	"accessors":[
		{
			"bufferView":0,
			"componentType":5126,
			"count":98,
			"max":[
				0.48746395111083984,
				0.5080305933952332,
				0.45048442482948303
			],
			"min":[
				-0.48746395111083984,
				-0.43148961663246155,
				-0.5
			],
			"type":"VEC3"
		},
		{
			"bufferView":1,
			"componentType":5126,
			"count":98,
			"type":"VEC3"
		},
		{
			"bufferView":2,
			"componentType":5126,
			"count":98,
			"type":"VEC2"
		},
		{
			"bufferView":3,
			"componentType":5123,
			"count":126,
			"type":"SCALAR"
		},
		{
			"bufferView":4,
			"componentType":5126,
			"count":30,
			"max":[
				0.08207360655069351,
				0.6493352651596069,
				0.10696335881948471
			],
			"min":[
				-0.03878382593393326,
				0.454897940158844,
				-0.02651355415582657
			],
			"type":"VEC3"
		},
		{
			"bufferView":5,
			"componentType":5126,
			"count":30,
			"type":"VEC3"
		},
		{
			"bufferView":6,
			"componentType":5126,
			"count":30,
			"type":"VEC2"
		},
		{
			"bufferView":7,
			"componentType":5123,
			"count":42,
			"type":"SCALAR"
		}
	],
	"bufferViews":[
		{
			"buffer":0,
			"byteLength":1176,
			"byteOffset":0,
			"target":34962
		},
		{
			"buffer":0,
			"byteLength":1176,
			"byteOffset":1176,
			"target":34962
		},
		{
			"buffer":0,
			"byteLength":784,
			"byteOffset":2352,
			"target":34962
		},
		{
			"buffer":0,
			"byteLength":252,
			"byteOffset":3136,
			"target":34963
		},
		{
			"buffer":0,
			"byteLength":360,
			"byteOffset":3388,
			"target":34962
		},
		{
			"buffer":0,
			"byteLength":360,
			"byteOffset":3748,
			"target":34962
		},
		{
			"buffer":0,
			"byteLength":240,
			"byteOffset":4108,
			"target":34962
		},
		{
			"buffer":0,
			"byteLength":84,
			"byteOffset":4348,
			"target":34963
		}
	],
	"samplers":[
		{
			"magFilter":9729,
			"minFilter":9987
		}
	],
	"buffers":[
		{
			"byteLength":4432,
			"uri":"apple.bin"
		}
	]
}
