{
	"asset":{
		"generator":"Khronos glTF Blender I/O v4.3.47",
		"version":"2.0"
	},
	"scene":0,
	"scenes":[
		{
			"name":"Scene",
			"nodes":[
				0,
				1,
				2
			]
		}
	],
	"nodes":[
		{
			"mesh":0,
			"name":"AppleLeft"
		},
		{
			"mesh":1,
			"name":"AppleRight"
		},
		{
			"mesh":2,
			"name":"Stem"
		}
	],
	"materials":[
		{
			"doubleSided":true,
			"name":"AppleSkin.001",
			"pbrMetallicRoughness":{
				"baseColorTexture":{
					"index":0
				},
				"metallicFactor":0,
				"roughnessFactor":0.5
			}
		},
		{
			"doubleSided":true,
			"name":"AppleInterior",
			"pbrMetallicRoughness":{
				"baseColorTexture":{
					"index":1
				},
				"metallicFactor":0,
				"roughnessFactor":0.5
			}
		},
		{
			"doubleSided":true,
			"name":"AppleSkin",
			"pbrMetallicRoughness":{
				"baseColorTexture":{
					"index":2
				},
				"metallicFactor":0,
				"roughnessFactor":0.5
			}
		},
		{
			"doubleSided":true,
			"name":"Wood",
			"pbrMetallicRoughness":{
				"baseColorTexture":{
					"index":3
				},
				"metallicFactor":0,
				"roughnessFactor":0.5
			}
		}
	],
	"meshes":[
		{
			"name":"Sphere.008",
			"primitives":[
				{
					"attributes":{
						"POSITION":0,
						"NORMAL":1,
						"TEXCOORD_0":2
					},
					"indices":3,
					"material":0
				},
				{
					"attributes":{
						"POSITION":4,
						"NORMAL":5,
						"TEXCOORD_0":6
					},
					"indices":7,
					"material":1
				}
			]
		},
		{
			"name":"Sphere.007",
			"primitives":[
				{
					"attributes":{
						"POSITION":8,
						"NORMAL":9,
						"TEXCOORD_0":10
					},
					"indices":11,
					"material":2
				},
				{
					"attributes":{
						"POSITION":12,
						"NORMAL":13,
						"TEXCOORD_0":14
					},
					"indices":15,
					"material":1
				}
			]
		},
		{
			"name":"Cylinder.002",
			"primitives":[
				{
					"attributes":{
						"POSITION":16,
						"NORMAL":17,
						"TEXCOORD_0":18
					},
					"indices":19,
					"material":3
				}
			]
		}
	],
	"textures":[
		{
			"sampler":0,
			"source":0
		},
		{
			"sampler":0,
			"source":1
		},
		{
			"sampler":0,
			"source":0
		},
		{
			"sampler":0,
			"source":2
		}
	],
	"images":[
		{
			"mimeType":"image/jpeg",
			"name":"apple_exterior",
			"uri":"../textures/apple_exterior.jpg"
		},
		{
			"mimeType":"image/png",
			"name":"apple_interior",
			"uri":"../textures/apple_interior.png"
		},
		{
			"mimeType":"image/png",
			"name":"wood",
			"uri":"../textures/wood.png"
		}
	],
	"accessors":[
		{
			"bufferView":0,
			"componentType":5126,
			"count":77,
			"max":[
				0.48746395111083984,
				0.4767746329307556,
				0.45048442482948303
			],
			"min":[
				-0.1636274755001068,
				-0.43148961663246155,
				-0.45883870124816895
			],
			"type":"VEC3"
		},
		{
			"bufferView":1,
			"componentType":5126,
			"count":77,
			"type":"VEC3"
		},
		{
			"bufferView":2,
			"componentType":5126,
			"count":77,
			"type":"VEC2"
		},
		{
			"bufferView":3,
			"componentType":5123,
			"count":105,
			"type":"SCALAR"
		},
		{
			"bufferView":4,
			"componentType":5126,
			"count":13,
			"max":[
				0.15351338684558868,
				0.4767746329307556,
				0.45048439502716064
			],
			"min":[
				-0.1636274755001068,
				-0.39845213294029236,
				-0.45883870124816895
			],
			"type":"VEC3"
		},
		{
			"bufferView":5,
			"componentType":5126,
			"count":13,
			"type":"VEC3"
		},
		{
			"bufferView":6,
			"componentType":5126,
			"count":13,
			"type":"VEC2"
		},
		{
			"bufferView":7,
			"componentType":5123,
			"count":33,
			"type":"SCALAR"
		},
		{
			"bufferView":8,
			"componentType":5126,
			"count":73,
			"max":[
				0.15351338684558868,
				0.5080305933952332,
				0.45048439502716064
			],
			"min":[
				-0.48746395111083984,
				-0.39845213294029236,
				-0.5
			],
			"type":"VEC3"
		},
		{
			"bufferView":9,
			"componentType":5126,
			"count":73,
			"type":"VEC3"
		},
		{
			"bufferView":10,
			"componentType":5126,
			"count":73,
			"type":"VEC2"
		},
		{
			"bufferView":11,
			"componentType":5123,
			"count":99,
			"type":"SCALAR"
		},
		{
			"bufferView":12,
			"componentType":5126,
			"count":13,
			"max":[
				0.15351338684558868,
				0.4767746329307556,
				0.45048439502716064
			],
			"min":[
				-0.1636274755001068,
				-0.39845213294029236,
				-0.45883870124816895
			],
			"type":"VEC3"
		},
		{
			"bufferView":13,
			"componentType":5126,
			"count":13,
			"type":"VEC3"
		},
		{
			"bufferView":14,
			"componentType":5126,
			"count":13,
			"type":"VEC2"
		},
		{
			"bufferView":15,
			"componentType":5123,
			"count":33,
			"type":"SCALAR"
		},
		{
			"bufferView":16,
			"componentType":5126,
			"count":30,
			"max":[
				0.08207360655069351,
				0.6493352651596069,
				0.10696335881948471
			],
			"min":[
				-0.03878382593393326,
				0.454897940158844,
				-0.02651355415582657
			],
			"type":"VEC3"
		},
		{
			"bufferView":17,
			"componentType":5126,
			"count":30,
			"type":"VEC3"
		},
		{
			"bufferView":18,
			"componentType":5126,
			"count":30,
			"type":"VEC2"
		},
		{
			"bufferView":19,
			"componentType":5123,
			"count":42,
			"type":"SCALAR"
		}
	],
	"bufferViews":[
		{
			"buffer":0,
			"byteLength":924,
			"byteOffset":0,
			"target":34962
		},
		{
			"buffer":0,
			"byteLength":924,
			"byteOffset":924,
			"target":34962
		},
		{
			"buffer":0,
			"byteLength":616,
			"byteOffset":1848,
			"target":34962
		},
		{
			"buffer":0,
			"byteLength":210,
			"byteOffset":2464,
			"target":34963
		},
		{
			"buffer":0,
			"byteLength":156,
			"byteOffset":2676,
			"target":34962
		},
		{
			"buffer":0,
			"byteLength":156,
			"byteOffset":2832,
			"target":34962
		},
		{
			"buffer":0,
			"byteLength":104,
			"byteOffset":2988,
			"target":34962
		},
		{
			"buffer":0,
			"byteLength":66,
			"byteOffset":3092,
			"target":34963
		},
		{
			"buffer":0,
			"byteLength":876,
			"byteOffset":3160,
			"target":34962
		},
		{
			"buffer":0,
			"byteLength":876,
			"byteOffset":4036,
			"target":34962
		},
		{
			"buffer":0,
			"byteLength":584,
			"byteOffset":4912,
			"target":34962
		},
		{
			"buffer":0,
			"byteLength":198,
			"byteOffset":5496,
			"target":34963
		},
		{
			"buffer":0,
			"byteLength":156,
			"byteOffset":5696,
			"target":34962
		},
		{
			"buffer":0,
			"byteLength":156,
			"byteOffset":5852,
			"target":34962
		},
		{
			"buffer":0,
			"byteLength":104,
			"byteOffset":6008,
			"target":34962
		},
		{
			"buffer":0,
			"byteLength":66,
			"byteOffset":6112,
			"target":34963
		},
		{
			"buffer":0,
			"byteLength":360,
			"byteOffset":6180,
			"target":34962
		},
		{
			"buffer":0,
			"byteLength":360,
			"byteOffset":6540,
			"target":34962
		},
		{
			"buffer":0,
			"byteLength":240,
			"byteOffset":6900,
			"target":34962
		},
		{
			"buffer":0,
			"byteLength":84,
			"byteOffset":7140,
			"target":34963
		}
	],
	"samplers":[
		{
			"magFilter":9729,
			"minFilter":9987
		}
	],
	"buffers":[
		{
			"byteLength":7224,
			"uri":"apple_vertical.bin"
		}
	]
}
