# Blender 4.3.0
# www.blender.org
mtllib apple_vertical.mtl
o AppleRight
v 0.000000 0.415011 -0.401246
v 0.000000 0.508031 0.000000
v -0.174094 0.415011 0.361510
v -0.216942 0.151773 0.450484
v -0.391186 0.415011 0.089286
v -0.487464 0.151773 0.111260
v -0.344689 -0.353553 0.078673
v -0.313707 0.415011 -0.250173
v -0.390916 0.151773 -0.311745
v -0.276419 -0.353553 -0.220437
v 0.000000 0.151773 -0.500000
v 0.153513 0.415011 -0.327318
v 0.085472 0.151773 -0.458839
v 0.000000 -0.105807 -0.425352
v 0.144694 0.465126 -0.115390
v 0.131445 0.476775 0.030001
v 0.102640 0.453189 0.213135
v 0.073264 0.415011 0.361510
v -0.020465 0.151773 0.450484
v -0.156978 -0.325106 0.325968
v -0.163627 -0.353553 0.305717
v -0.146115 -0.398452 0.033350
v -0.129160 -0.395073 -0.103002
v -0.091982 -0.353553 -0.309257
vn 0.4110 0.3202 -0.8535
vn 0.4198 -0.2526 -0.8717
vn 0.1081 0.9685 -0.2245
vn 0.2429 0.9685 -0.0555
vn 0.1948 0.9685 0.1554
vn -0.0000 0.3202 0.9473
vn -0.0000 -0.2526 0.9676
vn -0.0000 0.9685 0.2492
vn -0.1948 0.9685 0.1554
vn -0.1858 -0.9713 0.1482
vn -0.7407 0.3202 0.5907
vn -0.7565 -0.2526 0.6033
vn -0.9433 -0.2526 -0.2153
vn -0.2429 0.9685 -0.0555
vn -0.2317 -0.9713 -0.0529
vn -0.9236 0.3202 -0.2108
vn -0.4198 -0.2526 -0.8717
vn -0.1081 0.9685 -0.2245
vn -0.1031 -0.9713 -0.2141
vn -0.4110 0.3202 -0.8535
vn 0.9475 -0.3001 0.1104
vt 0.080517 0.854277
vt 0.100317 0.800196
vt 0.179051 0.800196
vt 0.124355 0.854277
vt 0.100931 0.097674
vt 0.215288 0.139973
vt 0.092272 0.125006
vt 0.217870 0.706954
vt 0.180764 0.627129
vt 0.241504 0.643347
vt 0.266229 0.563832
vt 0.407063 0.144806
vt 0.520851 0.125006
vt 0.520851 0.215797
vt 0.407063 0.259109
vt 0.705536 0.152715
vt 0.180764 0.450507
vt 0.283748 0.499711
vt 0.035803 0.519767
vt 1.000000 0.538900
vt 0.915201 0.579737
vt 0.895085 0.455233
vt 0.361611 0.044489
vt 0.464212 -0.000000
vt 0.676503 0.065975
vt 0.714412 0.149643
vt 0.361611 0.384532
vt 0.131873 0.450507
vt 0.092272 0.325501
vt 0.333608 0.296139
vt 0.000000 0.675393
vt 1.000000 0.680671
vt 0.921583 0.642908
vt 0.031780 0.406018
vt -0.000000 0.305701
vt 0.333608 0.201545
vt 0.926043 0.739650
vt 0.000000 0.144806
vt 0.788669 0.186180
vt 0.533352 0.146605
vt 0.405087 0.152122
vt 0.210431 0.196137
vt 0.096969 0.440722
vt 0.061009 0.693601
vt 0.180101 0.949355
vt 0.378499 0.995018
vt 0.515003 1.004076
vt 0.687607 0.978005
vt 0.827782 0.938202
vt 0.916013 0.678880
vt 0.807217 0.213720
s 0
usemtl AppleSkin
f 11/1/1 1/2/1 12/3/1 13/4/1
f 13/5/2 14/6/2 11/7/2
f 15/8/3 12/3/3 1/2/3 2/9/3
f 2/9/4 16/10/4 15/8/4
f 2/9/5 17/11/5 16/10/5
f 3/12/6 4/13/6 19/14/6 18/15/6
f 4/13/7 20/16/7 19/14/7
f 2/9/8 3/17/8 18/18/8 17/11/8
f 5/19/9 3/17/9 2/9/9
f 7/20/10 22/21/10 21/22/10
f 4/13/11 3/12/11 5/23/11 6/24/11
f 4/13/12 6/24/12 7/25/12 21/26/12 20/16/12
f 7/27/13 6/28/13 9/29/13 10/30/13
f 8/31/14 5/19/14 2/9/14
f 22/21/15 7/20/15 10/32/15 23/33/15
f 6/28/16 5/34/16 8/35/16 9/29/16
f 10/30/17 9/29/17 11/7/17 14/6/17 24/36/17
f 8/31/18 2/9/18 1/2/18
f 10/32/19 24/37/19 23/33/19
f 9/29/20 8/35/20 1/38/20 11/7/20
usemtl AppleInterior
f 21/39/21 22/40/21 23/41/21 24/42/21 14/43/21 13/44/21 12/45/21 15/46/21 16/47/21 17/48/21 18/49/21 19/50/21 20/51/21
o Stem
v -0.017130 0.462871 -0.026514
v -0.012213 0.551302 -0.017072
v 0.028541 0.454898 0.024378
v 0.033458 0.543329 0.033819
v -0.038784 0.457125 0.038582
v -0.033866 0.545557 0.048024
v 0.082074 0.607026 0.080468
v 0.025468 0.649335 0.035979
v 0.003008 0.611516 0.106963
vn 0.7462 0.0295 -0.6650
vn 0.2014 -0.1151 0.9727
vn -0.8674 0.4812 -0.1271
vn -0.9476 0.0855 -0.3077
vn -0.0552 -0.9928 -0.1060
vn 0.2187 0.8308 0.5118
vn 0.1655 -0.6861 0.7085
vn 0.6979 0.0671 -0.7130
vt 0.954985 0.892010
vt 0.645380 0.993981
vt 0.566480 0.754854
vt 0.876085 0.652883
vt 0.927101 0.333728
vt 0.611985 0.250190
vt 0.676553 0.006634
vt 0.991669 0.090172
vt 0.668365 0.323738
vt 0.602144 0.566415
vt 0.273021 0.629597
vt 0.243018 0.326201
vt 0.908316 0.654128
vt 0.974537 0.411450
vt 0.224971 0.338886
vt 0.236305 0.593712
vt 0.009952 0.476114
vt 0.327628 0.310580
vt 0.251353 0.110323
vt 0.395150 0.014452
vt 0.219655 0.931220
vt 0.252182 0.628792
s 0
usemtl Wood
f 25/52/22 26/53/22 28/54/22 27/55/22
f 27/56/23 28/57/23 30/58/23 29/59/23
f 26/60/24 30/61/24 33/62/24 32/63/24
f 29/64/25 30/61/25 26/60/25 25/65/25
f 25/66/26 27/67/26 29/68/26
f 31/69/27 32/70/27 33/71/27
f 30/58/28 28/57/28 31/69/28 33/71/28
f 28/54/29 26/53/29 32/72/29 31/73/29
o AppleLeft
v 0.000000 -0.353553 -0.353553
v 0.313707 0.415011 -0.250173
v 0.390916 0.151773 -0.311745
v 0.276419 -0.353553 -0.220437
v 0.391186 0.415011 0.089286
v 0.487464 0.151773 0.111260
v 0.344689 -0.353553 0.078673
v 0.174094 0.415011 0.361510
v 0.216942 0.151773 0.450484
v 0.153401 -0.353553 0.318541
v 0.000000 -0.431490 0.000000
v -0.153401 -0.353553 0.318541
v 0.153513 0.415011 -0.327318
v 0.085472 0.151773 -0.458839
v 0.000000 -0.105807 -0.425352
v 0.144694 0.465126 -0.115390
v 0.131445 0.476775 0.030001
v 0.102640 0.453189 0.213135
v 0.073264 0.415011 0.361510
v -0.020465 0.151773 0.450484
v -0.156978 -0.325106 0.325968
v -0.163627 -0.353553 0.305717
v -0.146115 -0.398452 0.033350
v -0.129160 -0.395073 -0.103002
v -0.091982 -0.353553 -0.309257
vn 0.1031 -0.9713 -0.2141
vn 0.4110 0.3202 -0.8535
vn 0.4198 -0.2526 -0.8717
vn 0.1081 0.9685 -0.2245
vn 0.2317 -0.9713 -0.0529
vn 0.9236 0.3202 -0.2108
vn 0.9433 -0.2526 -0.2153
vn 0.2429 0.9685 -0.0555
vn 0.1858 -0.9713 0.1482
vn 0.7407 0.3202 0.5907
vn 0.7565 -0.2526 0.6033
vn 0.1948 0.9685 0.1554
vn -0.0000 -0.9713 0.2377
vn -0.0000 0.3202 0.9473
vn -0.0000 -0.2526 0.9676
vn -0.0000 0.9685 0.2492
vn -0.1858 -0.9713 0.1482
vn -0.7565 -0.2526 0.6033
vn -0.2317 -0.9713 -0.0529
vn -0.4198 -0.2526 -0.8717
vn -0.1031 -0.9713 -0.2141
vn -0.9475 0.3001 -0.1104
vt 0.889159 0.769064
vt 0.750942 0.737517
vt 0.852805 0.609786
vt 0.179051 0.800196
vt 0.261212 0.800196
vt 0.281012 0.854277
vt 0.124355 0.854277
vt 0.131873 -0.000000
vt 0.361611 0.065975
vt 0.333608 0.154368
vt 0.215288 0.139973
vt 0.100931 0.097674
vt 0.217870 0.706954
vt 0.689430 0.609786
vt 0.361529 0.563927
vt 0.370040 0.469939
vt 0.529757 0.450507
vt 0.560556 0.539713
vt 0.419822 0.799951
vt 0.560556 0.782829
vt 0.241504 0.643347
vt 0.361529 0.675393
vt 0.750942 0.482055
vt 0.464212 0.450507
vt 0.361611 0.406018
vt 0.407063 0.305701
vt 0.520851 0.325501
vt 0.689430 0.563927
vt 0.651684 0.799951
vt 0.325726 0.519767
vt 0.266229 0.563832
vt 0.889159 0.450507
vt 0.520851 0.215797
vt 0.407063 0.259109
vt 0.705536 0.152715
vt 0.716553 0.154368
vt 0.716553 0.296139
vt 0.283748 0.499711
vt 0.895085 0.455233
vt 0.915201 0.579737
vt 0.714412 0.149643
vt 0.921583 0.642908
vt 0.333608 0.201545
vt 0.926043 0.739650
vt 0.715285 0.967912
vt 0.519475 0.994398
vt 0.365137 0.981757
vt 0.141388 0.926601
vt 0.011075 0.635053
vt 0.056201 0.349471
vt 0.188901 0.074633
vt 0.409984 0.028225
vt 0.555252 0.024225
vt 0.843530 0.073486
vt 0.864040 0.104981
vt 0.979033 0.633358
vt 0.874634 0.925316
s 0
usemtl AppleSkin.001
f 34/74/30 37/75/30 44/76/30
f 46/77/31 35/78/31 36/79/31 47/80/31
f 36/81/32 37/82/32 34/83/32 48/84/32 47/85/32
f 46/77/33 49/86/33 35/78/33
f 37/75/34 40/87/34 44/76/34
f 36/88/35 35/89/35 38/90/35 39/91/35
f 37/92/36 36/88/36 39/91/36 40/93/36
f 50/94/37 38/95/37 35/78/37 49/86/37
f 44/76/38 40/87/38 43/96/38
f 39/97/39 38/98/39 41/99/39 42/100/39
f 40/93/40 39/91/40 42/101/40 43/102/40
f 41/103/41 38/95/41 50/94/41 51/104/41
f 44/76/42 43/96/42 45/105/42
f 53/106/43 42/100/43 41/99/43 52/107/43
f 54/108/44 45/109/44 43/110/44 42/100/44 53/106/44
f 51/104/45 52/111/45 41/103/45
f 44/76/46 45/105/46 55/112/46 56/113/46
f 55/114/47 45/109/47 54/108/47
f 57/115/48 44/76/48 56/113/48
f 34/83/49 58/116/49 48/84/49
f 34/74/50 44/76/50 57/115/50 58/117/50
usemtl AppleInterior
f 51/118/51 50/119/51 49/120/51 46/121/51 47/122/51 48/123/51 58/124/51 57/125/51 56/126/51 55/127/51 54/128/51 53/129/51 52/130/51
