{
	"asset":{
		"generator":"Khronos glTF Blender I/O v4.3.47",
		"version":"2.0"
	},
	"scene":0,
	"scenes":[
		{
			"name":"Scene",
			"nodes":[
				0,
				1
			]
		}
	],
	"nodes":[
		{
			"mesh":0,
			"name":"LemonLeft"
		},
		{
			"mesh":1,
			"name":"LemonRight"
		}
	],
	"materials":[
		{
			"doubleSided":true,
			"name":"LemonExterior",
			"pbrMetallicRoughness":{
				"baseColorTexture":{
					"index":0
				},
				"metallicFactor":0,
				"roughnessFactor":0.5
			}
		},
		{
			"doubleSided":true,
			"name":"LemonInterior",
			"pbrMetallicRoughness":{
				"baseColorTexture":{
					"index":1
				},
				"metallicFactor":0,
				"roughnessFactor":0.5
			}
		}
	],
	"meshes":[
		{
			"name":"Sphere.013",
			"primitives":[
				{
					"attributes":{
						"POSITION":0,
						"NORMAL":1,
						"TEXCOORD_0":2
					},
					"indices":3,
					"material":0
				},
				{
					"attributes":{
						"POSITION":4,
						"NORMAL":5,
						"TEXCOORD_0":6
					},
					"indices":7,
					"material":1
				}
			]
		},
		{
			"name":"Sphere.014",
			"primitives":[
				{
					"attributes":{
						"POSITION":8,
						"NORMAL":9,
						"TEXCOORD_0":10
					},
					"indices":11,
					"material":0
				},
				{
					"attributes":{
						"POSITION":12,
						"NORMAL":13,
						"TEXCOORD_0":14
					},
					"indices":15,
					"material":1
				}
			]
		}
	],
	"textures":[
		{
			"sampler":0,
			"source":0
		},
		{
			"sampler":0,
			"source":1
		}
	],
	"images":[
		{
			"mimeType":"image/jpeg",
			"name":"lemon_exterior",
			"uri":"../textures/lemon_exterior.jpg"
		},
		{
			"mimeType":"image/jpeg",
			"name":"lemon_interior",
			"uri":"../textures/lemon_interior.jpg"
		}
	],
	"accessors":[
		{
			"bufferView":0,
			"componentType":5126,
			"count":65,
			"max":[
				0.6539234519004822,
				0.5058502554893494,
				0.4900858700275421
			],
			"min":[
				-0.14683303236961365,
				-0.4448493421077728,
				-0.4381571412086487
			],
			"type":"VEC3"
		},
		{
			"bufferView":1,
			"componentType":5126,
			"count":65,
			"type":"VEC3"
		},
		{
			"bufferView":2,
			"componentType":5126,
			"count":65,
			"type":"VEC2"
		},
		{
			"bufferView":3,
			"componentType":5123,
			"count":87,
			"type":"SCALAR"
		},
		{
			"bufferView":4,
			"componentType":5126,
			"count":9,
			"max":[
				0.1672777533531189,
				0.48477259278297424,
				0.45450741052627563
			],
			"min":[
				-0.14683303236961365,
				-0.4448493421077728,
				-0.4381571412086487
			],
			"type":"VEC3"
		},
		{
			"bufferView":5,
			"componentType":5126,
			"count":9,
			"type":"VEC3"
		},
		{
			"bufferView":6,
			"componentType":5126,
			"count":9,
			"type":"VEC2"
		},
		{
			"bufferView":7,
			"componentType":5123,
			"count":21,
			"type":"SCALAR"
		},
		{
			"bufferView":8,
			"componentType":5126,
			"count":69,
			"max":[
				0.1672777533531189,
				0.48477259278297424,
				0.45450741052627563
			],
			"min":[
				-0.6539234519004822,
				-0.44974657893180847,
				-0.4900858700275421
			],
			"type":"VEC3"
		},
		{
			"bufferView":9,
			"componentType":5126,
			"count":69,
			"type":"VEC3"
		},
		{
			"bufferView":10,
			"componentType":5126,
			"count":69,
			"type":"VEC2"
		},
		{
			"bufferView":11,
			"componentType":5123,
			"count":93,
			"type":"SCALAR"
		},
		{
			"bufferView":12,
			"componentType":5126,
			"count":9,
			"max":[
				0.1672777533531189,
				0.48477259278297424,
				0.45450741052627563
			],
			"min":[
				-0.14683303236961365,
				-0.4448493421077728,
				-0.4381571412086487
			],
			"type":"VEC3"
		},
		{
			"bufferView":13,
			"componentType":5126,
			"count":9,
			"type":"VEC3"
		},
		{
			"bufferView":14,
			"componentType":5126,
			"count":9,
			"type":"VEC2"
		},
		{
			"bufferView":15,
			"componentType":5123,
			"count":21,
			"type":"SCALAR"
		}
	],
	"bufferViews":[
		{
			"buffer":0,
			"byteLength":780,
			"byteOffset":0,
			"target":34962
		},
		{
			"buffer":0,
			"byteLength":780,
			"byteOffset":780,
			"target":34962
		},
		{
			"buffer":0,
			"byteLength":520,
			"byteOffset":1560,
			"target":34962
		},
		{
			"buffer":0,
			"byteLength":174,
			"byteOffset":2080,
			"target":34963
		},
		{
			"buffer":0,
			"byteLength":108,
			"byteOffset":2256,
			"target":34962
		},
		{
			"buffer":0,
			"byteLength":108,
			"byteOffset":2364,
			"target":34962
		},
		{
			"buffer":0,
			"byteLength":72,
			"byteOffset":2472,
			"target":34962
		},
		{
			"buffer":0,
			"byteLength":42,
			"byteOffset":2544,
			"target":34963
		},
		{
			"buffer":0,
			"byteLength":828,
			"byteOffset":2588,
			"target":34962
		},
		{
			"buffer":0,
			"byteLength":828,
			"byteOffset":3416,
			"target":34962
		},
		{
			"buffer":0,
			"byteLength":552,
			"byteOffset":4244,
			"target":34962
		},
		{
			"buffer":0,
			"byteLength":186,
			"byteOffset":4796,
			"target":34963
		},
		{
			"buffer":0,
			"byteLength":108,
			"byteOffset":4984,
			"target":34962
		},
		{
			"buffer":0,
			"byteLength":108,
			"byteOffset":5092,
			"target":34962
		},
		{
			"buffer":0,
			"byteLength":72,
			"byteOffset":5200,
			"target":34962
		},
		{
			"buffer":0,
			"byteLength":42,
			"byteOffset":5272,
			"target":34963
		}
	],
	"samplers":[
		{
			"magFilter":9729,
			"minFilter":9987
		}
	],
	"buffers":[
		{
			"byteLength":5316,
			"uri":"lemon.bin"
		}
	]
}
