{
	"asset":{
		"generator":"Khronos glTF Blender I/O v4.3.47",
		"version":"2.0"
	},
	"scene":0,
	"scenes":[
		{
			"name":"Scene",
			"nodes":[
				0,
				1,
				2
			]
		}
	],
	"nodes":[
		{
			"mesh":0,
			"name":"LeafTop",
			"rotation":[
				0.044491857290267944,
				0.08524313569068909,
				-0.2395181953907013,
				0.966118574142456
			],
			"scale":[
				0.8274365663528442,
				0.8274365663528442,
				0.8274365663528442
			],
			"translation":[
				-0.09649689495563507,
				0.7588182687759399,
				0.24109229445457458
			]
		},
		{
			"mesh":1,
			"name":"LeafUnder",
			"rotation":[
				0.10555548965930939,
				0.0038434562738984823,
				-0.03879283741116524,
				0.9936490654945374
			],
			"translation":[
				-0.2646371126174927,
				0.6912539601325989,
				0.27775269746780396
			]
		},
		{
			"mesh":2,
			"name":"Peach"
		}
	],
	"materials":[
		{
			"doubleSided":true,
			"name":"Leaf.001",
			"pbrMetallicRoughness":{
				"baseColorTexture":{
					"index":0
				},
				"metallicFactor":0,
				"roughnessFactor":0.5
			}
		},
		{
			"doubleSided":true,
			"name":"Leaf",
			"pbrMetallicRoughness":{
				"baseColorTexture":{
					"index":1
				},
				"metallicFactor":0,
				"roughnessFactor":0.5
			}
		},
		{
			"doubleSided":true,
			"name":"PeachExterior",
			"pbrMetallicRoughness":{
				"baseColorTexture":{
					"index":2
				},
				"metallicFactor":0,
				"roughnessFactor":0.5
			}
		}
	],
	"meshes":[
		{
			"name":"Plane.001",
			"primitives":[
				{
					"attributes":{
						"POSITION":0,
						"NORMAL":1,
						"TEXCOORD_0":2
					},
					"indices":3,
					"material":0
				}
			]
		},
		{
			"name":"Plane",
			"primitives":[
				{
					"attributes":{
						"POSITION":4,
						"NORMAL":5,
						"TEXCOORD_0":6
					},
					"indices":3,
					"material":1
				}
			]
		},
		{
			"name":"Sphere.015",
			"primitives":[
				{
					"attributes":{
						"POSITION":7,
						"NORMAL":8,
						"TEXCOORD_0":9
					},
					"indices":10,
					"material":2
				}
			]
		}
	],
	"textures":[
		{
			"sampler":0,
			"source":0
		},
		{
			"sampler":0,
			"source":0
		},
		{
			"sampler":0,
			"source":1
		}
	],
	"images":[
		{
			"mimeType":"image/png",
			"name":"leaf",
			"uri":"../textures/leaf.png"
		},
		{
			"mimeType":"image/png",
			"name":"peach_exterior",
			"uri":"../textures/peach_exterior.png"
		}
	],
	"accessors":[
		{
			"bufferView":0,
			"componentType":5126,
			"count":4,
			"max":[
				0.27554208040237427,
				0.1116647720336914,
				0.16165214776992798
			],
			"min":[
				-0.25785839557647705,
				-0.14851385354995728,
				-0.21914313733577728
			],
			"type":"VEC3"
		},
		{
			"bufferView":1,
			"componentType":5126,
			"count":4,
			"type":"VEC3"
		},
		{
			"bufferView":2,
			"componentType":5126,
			"count":4,
			"type":"VEC2"
		},
		{
			"bufferView":3,
			"componentType":5123,
			"count":6,
			"type":"SCALAR"
		},
		{
			"bufferView":4,
			"componentType":5126,
			"count":4,
			"max":[
				0.27554208040237427,
				0.1116647720336914,
				0.16165214776992798
			],
			"min":[
				-0.25785839557647705,
				-0.14851385354995728,
				-0.21914313733577728
			],
			"type":"VEC3"
		},
		{
			"bufferView":5,
			"componentType":5126,
			"count":4,
			"type":"VEC3"
		},
		{
			"bufferView":6,
			"componentType":5126,
			"count":4,
			"type":"VEC2"
		},
		{
			"bufferView":7,
			"componentType":5126,
			"count":98,
			"max":[
				0.6470187306404114,
				0.5994392037391663,
				0.5979352593421936
			],
			"min":[
				-0.6470186710357666,
				-0.598616361618042,
				-0.6636580228805542
			],
			"type":"VEC3"
		},
		{
			"bufferView":8,
			"componentType":5126,
			"count":98,
			"type":"VEC3"
		},
		{
			"bufferView":9,
			"componentType":5126,
			"count":98,
			"type":"VEC2"
		},
		{
			"bufferView":10,
			"componentType":5123,
			"count":126,
			"type":"SCALAR"
		}
	],
	"bufferViews":[
		{
			"buffer":0,
			"byteLength":48,
			"byteOffset":0,
			"target":34962
		},
		{
			"buffer":0,
			"byteLength":48,
			"byteOffset":48,
			"target":34962
		},
		{
			"buffer":0,
			"byteLength":32,
			"byteOffset":96,
			"target":34962
		},
		{
			"buffer":0,
			"byteLength":12,
			"byteOffset":128,
			"target":34963
		},
		{
			"buffer":0,
			"byteLength":48,
			"byteOffset":140,
			"target":34962
		},
		{
			"buffer":0,
			"byteLength":48,
			"byteOffset":188,
			"target":34962
		},
		{
			"buffer":0,
			"byteLength":32,
			"byteOffset":236,
			"target":34962
		},
		{
			"buffer":0,
			"byteLength":1176,
			"byteOffset":268,
			"target":34962
		},
		{
			"buffer":0,
			"byteLength":1176,
			"byteOffset":1444,
			"target":34962
		},
		{
			"buffer":0,
			"byteLength":784,
			"byteOffset":2620,
			"target":34962
		},
		{
			"buffer":0,
			"byteLength":252,
			"byteOffset":3404,
			"target":34963
		}
	],
	"samplers":[
		{
			"magFilter":9729,
			"minFilter":9987
		}
	],
	"buffers":[
		{
			"byteLength":3656,
			"uri":"peach.bin"
		}
	]
}
