{
	"asset":{
		"generator":"Khronos glTF Blender I/O v4.3.47",
		"version":"2.0"
	},
	"scene":0,
	"scenes":[
		{
			"name":"Scene",
			"nodes":[
				0,
				1
			]
		}
	],
	"nodes":[
		{
			"mesh":0,
			"name":"WatermelonRight",
			"scale":[
				1.149999976158142,
				1.149999976158142,
				1.149999976158142
			]
		},
		{
			"mesh":1,
			"name":"WatermelonLeft",
			"rotation":[
				0,
				0,
				1,
				1.910685676922942e-15
			],
			"scale":[
				1.149999976158142,
				1.149999976158142,
				1.149999976158142
			]
		}
	],
	"materials":[
		{
			"doubleSided":true,
			"name":"WatermelonRind",
			"pbrMetallicRoughness":{
				"baseColorTexture":{
					"index":0
				},
				"metallicFactor":0.15000000596046448,
				"roughnessFactor":0.6499999761581421
			}
		},
		{
			"doubleSided":true,
			"name":"Watermelon_Interior",
			"pbrMetallicRoughness":{
				"baseColorTexture":{
					"index":1
				},
				"metallicFactor":0,
				"roughnessFactor":0.8999999761581421
			}
		}
	],
	"meshes":[
		{
			"name":"Sphere",
			"primitives":[
				{
					"attributes":{
						"POSITION":0,
						"NORMAL":1,
						"TEXCOORD_0":2
					},
					"indices":3,
					"material":0
				},
				{
					"attributes":{
						"POSITION":4,
						"NORMAL":5,
						"TEXCOORD_0":6
					},
					"indices":7,
					"material":1
				}
			]
		},
		{
			"name":"Sphere.002",
			"primitives":[
				{
					"attributes":{
						"POSITION":8,
						"NORMAL":9,
						"TEXCOORD_0":10
					},
					"indices":3,
					"material":0
				},
				{
					"attributes":{
						"POSITION":11,
						"NORMAL":12,
						"TEXCOORD_0":13
					},
					"indices":7,
					"material":1
				}
			]
		}
	],
	"textures":[
		{
			"sampler":0,
			"source":0
		},
		{
			"sampler":0,
			"source":1
		}
	],
	"images":[
		{
			"mimeType":"image/jpeg",
			"name":"watermelon_exterior",
			"uri":"../textures/watermelon_exterior.jpg"
		},
		{
			"mimeType":"image/jpeg",
			"name":"watermelon_interior",
			"uri":"../textures/watermelon_interior.jpg"
		}
	],
	"accessors":[
		{
			"bufferView":0,
			"componentType":5126,
			"count":110,
			"max":[
				5.960464477539063e-08,
				1,
				0.8937007188796997
			],
			"min":[
				-0.9366077184677124,
				-1,
				-0.9510563611984253
			],
			"type":"VEC3"
		},
		{
			"bufferView":1,
			"componentType":5126,
			"count":110,
			"type":"VEC3"
		},
		{
			"bufferView":2,
			"componentType":5126,
			"count":110,
			"type":"VEC2"
		},
		{
			"bufferView":3,
			"componentType":5123,
			"count":180,
			"type":"SCALAR"
		},
		{
			"bufferView":4,
			"componentType":5126,
			"count":10,
			"max":[
				5.2730268151890414e-08,
				0.8945325613021851,
				0.7937006950378418
			],
			"min":[
				-1.3864175230082765e-07,
				-0.8945325613021851,
				-0.8510563373565674
			],
			"type":"VEC3"
		},
		{
			"bufferView":5,
			"componentType":5126,
			"count":10,
			"type":"VEC3"
		},
		{
			"bufferView":6,
			"componentType":5126,
			"count":10,
			"type":"VEC2"
		},
		{
			"bufferView":7,
			"componentType":5123,
			"count":24,
			"type":"SCALAR"
		},
		{
			"bufferView":8,
			"componentType":5126,
			"count":110,
			"max":[
				5.960464477539063e-08,
				1,
				0.8937007188796997
			],
			"min":[
				-0.9366077184677124,
				-1,
				-0.9510563611984253
			],
			"type":"VEC3"
		},
		{
			"bufferView":9,
			"componentType":5126,
			"count":110,
			"type":"VEC3"
		},
		{
			"bufferView":10,
			"componentType":5126,
			"count":110,
			"type":"VEC2"
		},
		{
			"bufferView":11,
			"componentType":5126,
			"count":10,
			"max":[
				5.2730268151890414e-08,
				0.8945325613021851,
				0.7937006950378418
			],
			"min":[
				-1.3864175230082765e-07,
				-0.8945325613021851,
				-0.8510563373565674
			],
			"type":"VEC3"
		},
		{
			"bufferView":12,
			"componentType":5126,
			"count":10,
			"type":"VEC3"
		},
		{
			"bufferView":13,
			"componentType":5126,
			"count":10,
			"type":"VEC2"
		}
	],
	"bufferViews":[
		{
			"buffer":0,
			"byteLength":1320,
			"byteOffset":0,
			"target":34962
		},
		{
			"buffer":0,
			"byteLength":1320,
			"byteOffset":1320,
			"target":34962
		},
		{
			"buffer":0,
			"byteLength":880,
			"byteOffset":2640,
			"target":34962
		},
		{
			"buffer":0,
			"byteLength":360,
			"byteOffset":3520,
			"target":34963
		},
		{
			"buffer":0,
			"byteLength":120,
			"byteOffset":3880,
			"target":34962
		},
		{
			"buffer":0,
			"byteLength":120,
			"byteOffset":4000,
			"target":34962
		},
		{
			"buffer":0,
			"byteLength":80,
			"byteOffset":4120,
			"target":34962
		},
		{
			"buffer":0,
			"byteLength":48,
			"byteOffset":4200,
			"target":34963
		},
		{
			"buffer":0,
			"byteLength":1320,
			"byteOffset":4248,
			"target":34962
		},
		{
			"buffer":0,
			"byteLength":1320,
			"byteOffset":5568,
			"target":34962
		},
		{
			"buffer":0,
			"byteLength":880,
			"byteOffset":6888,
			"target":34962
		},
		{
			"buffer":0,
			"byteLength":120,
			"byteOffset":7768,
			"target":34962
		},
		{
			"buffer":0,
			"byteLength":120,
			"byteOffset":7888,
			"target":34962
		},
		{
			"buffer":0,
			"byteLength":80,
			"byteOffset":8008,
			"target":34962
		}
	],
	"samplers":[
		{
			"magFilter":9729,
			"minFilter":9987
		}
	],
	"buffers":[
		{
			"byteLength":8088,
			"uri":"watermelon.bin"
		}
	]
}
