{
  "accessors": [
    {
      "bufferView": 2,
      "componentType": 5126,
      "count": 7730,
      "max": [
        0.18095114827156067,
        0.2618251144886017,
        0.332788348197937
      ],
      "min": [
        -0.17993909120559692,
        -0.19874471426010132,
        -0.00013014135765843093
      ],
      "type": "VEC3"
    },
    {
      "bufferView": 2,
      "byteOffset": 92760,
      "componentType": 5126,
      "count": 7730,
      "max": [
        0.9999968409538269,
        0.9999114274978638,
        0.9999104142189026
      ],
      "min": [
        -0.9999968409538269,
        -0.9999116659164429,
        -0.9999104142189026
      ],
      "type": "VEC3"
    },
    {
      "bufferView": 3,
      "componentType": 5126,
      "count": 7730,
      "max": [
        0.9999969005584717,
        0.9999218583106995,
        0.9999685883522034,
        1.0
      ],
      "min": [
        -0.9999967813491821,
        -0.9999107718467712,
        -0.9999107718467712,
        -1.0
      ],
      "type": "VEC4"
    },
    {
      "bufferView": 1,
      "componentType": 5126,
      "count": 7730,
      "max": [
        0.9916679859161377,
        0.9916930198669434
      ],
      "min": [
        0.008332014083862305,
        0.00830698013305664
      ],
      "type": "VEC2"
    },
    {
      "bufferView": 1,
      "byteOffset": 61840,
      "componentType": 5126,
      "count": 7730,
      "max": [
        0.9916679859161377,
        0.9916930198669434
      ],
      "min": [
        0.008332014083862305,
        0.00830698013305664
      ],
      "type": "VEC2"
    },
    {
      "bufferView": 0,
      "componentType": 5125,
      "count": 20148,
      "type": "SCALAR"
    }
  ],
  "asset": {
    "extras": {
      "author": "Meerschaum Digital (https://sketchfab.com/meerschaumdigital)",
      "license": "CC-BY-4.0 (http://creativecommons.org/licenses/by/4.0/)",
      "source": "https://sketchfab.com/3d-models/crate-of-pears-game-ready-4k-pbr-f4c3ab39ce8b429082a6f0f598e6b2cf",
      "title": "Crate of Pears (Game Ready / 4K PBR)"
    },
    "generator": "Sketchfab-12.68.0",
    "version": "2.0"
  },
  "bufferViews": [
    {
      "buffer": 0,
      "byteLength": 80592,
      "name": "floatBufferViews",
      "target": 34963
    },
    {
      "buffer": 0,
      "byteLength": 123680,
      "byteOffset": 80592,
      "byteStride": 8,
      "name": "floatBufferViews",
      "target": 34962
    },
    {
      "buffer": 0,
      "byteLength": 185520,
      "byteOffset": 204272,
      "byteStride": 12,
      "name": "floatBufferViews",
      "target": 34962
    },
    {
      "buffer": 0,
      "byteLength": 123680,
      "byteOffset": 389792,
      "byteStride": 16,
      "name": "floatBufferViews",
      "target": 34962
    }
  ],
  "buffers": [
    {
      "byteLength": 513472,
      "uri": "scene.bin"
    }
  ],
  "images": [
    {
      "uri": "textures/Pear_Crate_baseColor.jpeg"
    },
    {
      "uri": "textures/Pear_Crate_metallicRoughness.png"
    },
    {
      "uri": "textures/Pear_Crate_normal.jpeg"
    }
  ],
  "materials": [
    {
      "doubleSided": true,
      "name": "Pear_Crate",
      "normalTexture": {
        "index": 2
      },
      "pbrMetallicRoughness": {
        "baseColorTexture": {
          "index": 0
        },
        "metallicFactor": 0.0,
        "metallicRoughnessTexture": {
          "index": 1
        }
      }
    }
  ],
  "meshes": [
    {
      "name": " Pear Crate_Pear Crate_0",
      "primitives": [
        {
          "attributes": {
            "NORMAL": 1,
            "POSITION": 0,
            "TANGENT": 2,
            "TEXCOORD_0": 3,
            "TEXCOORD_1": 4
          },
          "indices": 5,
          "material": 0,
          "mode": 4
        }
      ]
    }
  ],
  "nodes": [
    {
      "children": [
        1
      ],
      "matrix": [
        1.0,
        0.0,
        0.0,
        0.0,
        0.0,
        2.220446049250313e-16,
        -1.0,
        0.0,
        0.0,
        1.0,
        2.220446049250313e-16,
        0.0,
        0.0,
        0.0,
        0.0,
        1.0
      ],
      "name": "Sketchfab_model"
    },
    {
      "children": [
        2
      ],
      "matrix": [
        1.0,
        0.0,
        0.0,
        0.0,
        0.0,
        0.0,
        1.0,
        0.0,
        0.0,
        -1.0,
        0.0,
        0.0,
        0.0,
        0.0,
        0.0,
        1.0
      ],
      "name": "b27be27627364bf28459171932ffadbc.fbx"
    },
    {
      "children": [
        3
      ],
      "name": "RootNode"
    },
    {
      "children": [
        4
      ],
      "matrix": [
        99.99995422363281,
        0.0,
        0.0,
        0.0,
        0.0,
        -1.6292061724252438e-05,
        -99.99996185302602,
        0.0,
        0.0,
        99.99996185302602,
        -1.6292061724252438e-05,
        0.0,
        0.0,
        0.0,
        0.0,
        1.0
      ],
      "name": " Pear Crate"
    },
    {
      "mesh": 0,
      "name": " Pear Crate_Pear Crate_0"
    }
  ],
  "samplers": [
    {
      "magFilter": 9729,
      "minFilter": 9987,
      "wrapS": 10497,
      "wrapT": 10497
    }
  ],
  "scene": 0,
  "scenes": [
    {
      "name": "Sketchfab_Scene",
      "nodes": [
        0
      ]
    }
  ],
  "textures": [
    {
      "sampler": 0,
      "source": 0
    },
    {
      "sampler": 0,
      "source": 1
    },
    {
      "sampler": 0,
      "source": 2
    }
  ]
}
