{
	"asset":{
		"generator":"Khronos glTF Blender I/O v4.3.47",
		"version":"2.0"
	},
	"scene":0,
	"scenes":[
		{
			"name":"Scene",
			"nodes":[
				0,
				1,
				2,
				3
			]
		}
	],
	"nodes":[
		{
			"mesh":0,
			"name":"Cylinder",
			"rotation":[
				0,
				-0.10619256645441055,
				0,
				0.9943456053733826
			],
			"scale":[
				0.6579654812812805,
				0.657965362071991,
				0.6579654812812805
			],
			"translation":[
				0,
				0.11545473337173462,
				0
			]
		},
		{
			"mesh":1,
			"name":"Cube",
			"rotation":[
				1,
				0,
				0,
				0
			],
			"scale":[
				-0.059050627052783966,
				-0.05969011411070824,
				-0.14905917644500732
			],
			"translation":[
				0.007004236336797476,
				0.5239495038986206,
				0
			]
		},
		{
			"mesh":2,
			"name":"Cube.001",
			"rotation":[
				1,
				0,
				0,
				0
			],
			"scale":[
				-0.015828479081392288,
				-0.05969011411070824,
				-0.09693332016468048
			],
			"translation":[
				0.007004236336797476,
				0.5983291864395142,
				0
			]
		},
		{
			"mesh":3,
			"name":"Cube.002",
			"rotation":[
				1,
				0,
				0,
				0
			],
			"scale":[
				-0.018473228439688683,
				-0.05969011411070824,
				-0.08873182535171509
			],
			"translation":[
				0.007004236336797476,
				0.5607627034187317,
				0
			]
		}
	],
	"materials":[
		{
			"doubleSided":true,
			"name":"KatanaHandle",
			"pbrMetallicRoughness":{
				"baseColorTexture":{
					"index":0
				},
				"metallicFactor":0,
				"roughnessFactor":0.8103448152542114
			}
		},
		{
			"doubleSided":true,
			"name":"Gold",
			"pbrMetallicRoughness":{
				"baseColorTexture":{
					"index":1
				},
				"metallicFactor":0.5,
				"roughnessFactor":0.15000000596046448
			}
		},
		{
			"doubleSided":true,
			"name":"KatanaBlade",
			"pbrMetallicRoughness":{
				"baseColorTexture":{
					"index":2
				},
				"metallicFactor":0.44396552443504333,
				"roughnessFactor":0.1551724076271057
			}
		}
	],
	"meshes":[
		{
			"name":"Cylinder",
			"primitives":[
				{
					"attributes":{
						"POSITION":0,
						"NORMAL":1,
						"TEXCOORD_0":2
					},
					"indices":3,
					"material":0
				},
				{
					"attributes":{
						"POSITION":4,
						"NORMAL":5,
						"TEXCOORD_0":6
					},
					"indices":7,
					"material":1
				}
			]
		},
		{
			"name":"Cube.001",
			"primitives":[
				{
					"attributes":{
						"POSITION":8,
						"NORMAL":9,
						"TEXCOORD_0":10
					},
					"indices":11,
					"material":1
				}
			]
		},
		{
			"name":"Cube.002",
			"primitives":[
				{
					"attributes":{
						"POSITION":12,
						"NORMAL":13,
						"TEXCOORD_0":14
					},
					"indices":15,
					"material":2
				}
			]
		},
		{
			"name":"Cube.003",
			"primitives":[
				{
					"attributes":{
						"POSITION":16,
						"NORMAL":17,
						"TEXCOORD_0":18
					},
					"indices":11,
					"material":1
				}
			]
		}
	],
	"textures":[
		{
			"sampler":0,
			"source":0
		},
		{
			"sampler":0,
			"source":1
		},
		{
			"sampler":0,
			"source":2
		}
	],
	"images":[
		{
			"mimeType":"image/jpeg",
			"name":"katana_handle",
			"uri":"katana_handle.jpg"
		},
		{
			"mimeType":"image/jpeg",
			"name":"gold",
			"uri":"gold.jpg"
		},
		{
			"mimeType":"image/jpeg",
			"name":"katana_blade",
			"uri":"katana_blade.jpg"
		}
	],
	"accessors":[
		{
			"bufferView":0,
			"componentType":5126,
			"count":25,
			"max":[
				0.06333176791667938,
				0.5341867208480835,
				0.08508007228374481
			],
			"min":[
				-0.0676950067281723,
				-0.49190568923950195,
				-0.10003544390201569
			],
			"type":"VEC3"
		},
		{
			"bufferView":1,
			"componentType":5126,
			"count":25,
			"type":"VEC3"
		},
		{
			"bufferView":2,
			"componentType":5126,
			"count":25,
			"type":"VEC2"
		},
		{
			"bufferView":3,
			"componentType":5123,
			"count":39,
			"type":"SCALAR"
		},
		{
			"bufferView":4,
			"componentType":5126,
			"count":25,
			"max":[
				0.06333176791667938,
				-0.49190568923950195,
				0.08508007228374481
			],
			"min":[
				-0.0676950067281723,
				-0.5785750150680542,
				-0.10003544390201569
			],
			"type":"VEC3"
		},
		{
			"bufferView":5,
			"componentType":5126,
			"count":25,
			"type":"VEC3"
		},
		{
			"bufferView":6,
			"componentType":5126,
			"count":25,
			"type":"VEC2"
		},
		{
			"bufferView":7,
			"componentType":5123,
			"count":39,
			"type":"SCALAR"
		},
		{
			"bufferView":8,
			"componentType":5126,
			"count":24,
			"max":[
				1.109059453010559,
				0.26453322172164917,
				1
			],
			"min":[
				-1.109059453010559,
				-1,
				-1
			],
			"type":"VEC3"
		},
		{
			"bufferView":9,
			"componentType":5126,
			"count":24,
			"type":"VEC3"
		},
		{
			"bufferView":10,
			"componentType":5126,
			"count":24,
			"type":"VEC2"
		},
		{
			"bufferView":11,
			"componentType":5123,
			"count":36,
			"type":"SCALAR"
		},
		{
			"bufferView":12,
			"componentType":5126,
			"count":66,
			"max":[
				1.5857570171356201,
				46.29729080200195,
				0.9904133081436157
			],
			"min":[
				-1.5972113609313965,
				-0.40956997871398926,
				-1.8614680767059326
			],
			"type":"VEC3"
		},
		{
			"bufferView":13,
			"componentType":5126,
			"count":66,
			"type":"VEC3"
		},
		{
			"bufferView":14,
			"componentType":5126,
			"count":66,
			"type":"VEC2"
		},
		{
			"bufferView":15,
			"componentType":5123,
			"count":96,
			"type":"SCALAR"
		},
		{
			"bufferView":16,
			"componentType":5126,
			"count":24,
			"max":[
				1.865113377571106,
				0.26453322172164917,
				1
			],
			"min":[
				-1.8651132583618164,
				-1,
				-1
			],
			"type":"VEC3"
		},
		{
			"bufferView":17,
			"componentType":5126,
			"count":24,
			"type":"VEC3"
		},
		{
			"bufferView":18,
			"componentType":5126,
			"count":24,
			"type":"VEC2"
		}
	],
	"bufferViews":[
		{
			"buffer":0,
			"byteLength":300,
			"byteOffset":0,
			"target":34962
		},
		{
			"buffer":0,
			"byteLength":300,
			"byteOffset":300,
			"target":34962
		},
		{
			"buffer":0,
			"byteLength":200,
			"byteOffset":600,
			"target":34962
		},
		{
			"buffer":0,
			"byteLength":78,
			"byteOffset":800,
			"target":34963
		},
		{
			"buffer":0,
			"byteLength":300,
			"byteOffset":880,
			"target":34962
		},
		{
			"buffer":0,
			"byteLength":300,
			"byteOffset":1180,
			"target":34962
		},
		{
			"buffer":0,
			"byteLength":200,
			"byteOffset":1480,
			"target":34962
		},
		{
			"buffer":0,
			"byteLength":78,
			"byteOffset":1680,
			"target":34963
		},
		{
			"buffer":0,
			"byteLength":288,
			"byteOffset":1760,
			"target":34962
		},
		{
			"buffer":0,
			"byteLength":288,
			"byteOffset":2048,
			"target":34962
		},
		{
			"buffer":0,
			"byteLength":192,
			"byteOffset":2336,
			"target":34962
		},
		{
			"buffer":0,
			"byteLength":72,
			"byteOffset":2528,
			"target":34963
		},
		{
			"buffer":0,
			"byteLength":792,
			"byteOffset":2600,
			"target":34962
		},
		{
			"buffer":0,
			"byteLength":792,
			"byteOffset":3392,
			"target":34962
		},
		{
			"buffer":0,
			"byteLength":528,
			"byteOffset":4184,
			"target":34962
		},
		{
			"buffer":0,
			"byteLength":192,
			"byteOffset":4712,
			"target":34963
		},
		{
			"buffer":0,
			"byteLength":288,
			"byteOffset":4904,
			"target":34962
		},
		{
			"buffer":0,
			"byteLength":288,
			"byteOffset":5192,
			"target":34962
		},
		{
			"buffer":0,
			"byteLength":192,
			"byteOffset":5480,
			"target":34962
		}
	],
	"samplers":[
		{
			"magFilter":9729,
			"minFilter":9987
		}
	],
	"buffers":[
		{
			"byteLength":5672,
			"uri":"katana.bin"
		}
	]
}
